<svg fill="none" height="29" viewBox="0 0 117 29" width="117" xmlns="http://www.w3.org/2000/svg" data-fc-idx="0"><path d="M29.6512 7.31708H24.0896C23.7517 3.55411 20.5681 0.595642 16.7217 0.595642C12.8624 0.595642 9.69176 3.55411 9.3539 7.31708H3.7923C1.84313 7.31708 0.257812 8.90012 0.257812 10.8465V25.1328C0.257812 27.0791 1.84313 28.6622 3.7923 28.6622H29.6642C31.6133 28.6622 33.1987 27.0791 33.1987 25.1328V10.8465C33.1987 8.90012 31.6003 7.31708 29.6512 7.31708ZM13.5771 8.87417C13.9669 10.2496 15.2274 11.2487 16.7217 11.2487C18.2161 11.2487 19.4766 10.2366 19.8664 8.87417H22.4913C22.0365 11.5601 19.5675 13.9996 16.9686 16.5688C16.8907 16.6466 16.7997 16.7245 16.7217 16.8153C16.6438 16.7375 16.5528 16.6596 16.4748 16.5688C13.876 13.9996 11.407 11.5601 10.9522 8.87417H13.5771ZM15.0195 7.99182C15.0195 7.05757 15.7861 6.292 16.7217 6.292C17.6573 6.292 18.424 7.05757 18.424 7.99182C18.424 8.92607 17.6573 9.69164 16.7217 9.69164C15.7861 9.69164 15.0195 8.92607 15.0195 7.99182ZM15.3833 17.6717C15.6432 17.9312 15.9161 18.1908 16.176 18.4632C16.3189 18.606 16.5268 18.6968 16.7217 18.6968C16.9167 18.6968 17.1246 18.619 17.2675 18.4632C17.5274 18.2037 17.8003 17.9312 18.0602 17.6717C20.9189 14.843 23.6348 12.1441 24.0636 8.87417H26.6365V27.1181H6.807V8.87417H9.37989C9.79572 12.157 12.5115 14.843 15.3833 17.6717ZM16.7217 2.16571C19.7105 2.16571 22.1924 4.42349 22.5172 7.33006H19.9054C19.5935 5.85082 18.2811 4.74788 16.7087 4.74788C15.1364 4.74788 13.824 5.85082 13.5121 7.33006H10.9002C11.2511 4.42349 13.733 2.16571 16.7217 2.16571ZM1.80415 25.1458V10.8465C1.80415 9.75652 2.68777 8.87417 3.7793 8.87417H5.24767V27.1181H3.7793C2.70077 27.1181 1.80415 26.2357 1.80415 25.1458ZM31.6393 25.1458C31.6393 26.2357 30.7557 27.1181 29.6642 27.1181H28.1958V8.87417H29.6642C30.7557 8.87417 31.6393 9.75652 31.6393 10.8465V25.1458Z" fill="#102a56" style="fill: rgb(16, 42, 86) !important;"/><path d="M46.3465 23.945C45.2757 23.945 44.3177 23.7612 43.4723 23.3935C42.6411 23.0259 41.9789 22.4885 41.4858 21.7814C41.2117 21.3769 41.0137 20.9237 40.8918 20.4219C40.7337 19.7707 41.2943 19.2148 41.9644 19.2148H42.6048C43.2533 19.2148 43.7513 19.7605 44.0639 20.3287C44.0775 20.3535 44.0917 20.3782 44.1063 20.4027C44.3177 20.7562 44.6065 21.039 44.9728 21.2511C45.3532 21.4491 45.804 21.5481 46.3253 21.5481C46.7762 21.5481 47.1636 21.4774 47.4877 21.336C47.8258 21.1804 48.0865 20.9683 48.2696 20.6996C48.4528 20.431 48.5444 20.1128 48.5444 19.7451C48.5444 19.3209 48.4387 18.9673 48.2274 18.6845C48.0301 18.4017 47.7483 18.1613 47.382 17.9633C47.0298 17.7653 46.6142 17.5886 46.1351 17.433C45.6702 17.2633 45.1771 17.0866 44.6558 16.9027C43.4864 16.5209 42.5918 16.0118 41.9718 15.3755C41.366 14.7391 41.0631 13.8977 41.0631 12.8513C41.0631 11.9604 41.2744 11.1968 41.6971 10.5604C42.1339 9.92406 42.7326 9.43619 43.4934 9.09681C44.2543 8.75742 45.1207 8.58772 46.0929 8.58772C47.0932 8.58772 47.9667 8.76449 48.7134 9.11802C49.4742 9.45741 50.073 9.95235 50.5098 10.6028C50.7403 10.9355 50.9138 11.2978 51.0301 11.6896C51.2211 12.3329 50.6574 12.8937 49.9864 12.8937H49.1345C48.5918 12.8937 48.1631 12.4371 47.8681 11.9816V11.9816C47.699 11.6846 47.4595 11.4513 47.1495 11.2816C46.8396 11.0978 46.4733 11.0059 46.0506 11.0059C45.6843 10.9917 45.3462 11.0483 45.0362 11.1756C44.7403 11.3028 44.5008 11.4937 44.3177 11.7483C44.1486 11.9887 44.0641 12.2927 44.0641 12.6604C44.0641 13.0139 44.1486 13.3109 44.3177 13.5513C44.5008 13.7917 44.7474 14.0038 45.0573 14.1876C45.3673 14.3573 45.7336 14.5199 46.1563 14.6755C46.5789 14.8169 47.0368 14.9654 47.5299 15.1209C48.2626 15.3755 48.9388 15.6795 49.5588 16.0331C50.1787 16.3724 50.6718 16.8179 51.0381 17.3694C51.4044 17.9209 51.5876 18.6492 51.5876 19.5542C51.5876 20.332 51.3833 21.0532 50.9747 21.7178C50.5661 22.3824 49.9744 22.9198 49.1995 23.3299C48.4387 23.74 47.4877 23.945 46.3465 23.945Z" fill="#102a56" style="fill: rgb(16, 42, 86) !important;"/><path d="M58.3396 23.6905C57.5929 23.6905 56.9377 23.5774 56.3742 23.3511C55.8247 23.1107 55.395 22.7218 55.085 22.1845C54.7751 21.633 54.6201 20.8835 54.6201 19.936V15.3967H54.0011C53.3392 15.3967 52.8026 14.8601 52.8026 14.1982V14.1982C52.8026 13.5363 53.3392 12.9998 54.0011 12.9998H54.6201L54.8202 11.1648C54.8867 10.5554 55.4014 10.0938 56.0145 10.0938H56.2718C56.9352 10.0938 57.4731 10.6316 57.4731 11.2951V12.9998H59.0854C59.7473 12.9998 60.2839 13.5363 60.2839 14.1982V14.1982C60.2839 14.8601 59.7473 15.3967 59.0854 15.3967H57.4731V19.9784C57.4731 20.4592 57.5788 20.7916 57.7901 20.9754C58.0014 21.1592 58.3607 21.2511 58.8679 21.2511H59.0614C59.7249 21.2511 60.2627 21.789 60.2627 22.4525V22.4892C60.2627 23.1526 59.7249 23.6905 59.0614 23.6905H58.3396Z" fill="#102a56" style="fill: rgb(16, 42, 86) !important;"/><path d="M65.855 23.945C64.9674 23.945 64.2348 23.8036 63.6571 23.5208C63.0795 23.2238 62.6498 22.835 62.368 22.3542C62.1003 21.8592 61.9664 21.3148 61.9664 20.7209C61.9664 20.0704 62.1285 19.4976 62.4525 19.0027C62.7906 18.5078 63.2908 18.1189 63.953 17.8361C64.6293 17.5532 65.4746 17.4118 66.489 17.4118H69.1307C69.1307 16.8886 69.0603 16.4573 68.9194 16.1179C68.7785 15.7644 68.5601 15.5028 68.2642 15.3331C67.9684 15.1634 67.5739 15.0785 67.0808 15.0785C66.5454 15.0785 66.0875 15.1987 65.7071 15.4391C65.623 15.4911 65.5463 15.5497 65.4771 15.615C65.053 16.0153 64.6055 16.4997 64.0223 16.4997H63.5796C62.8725 16.4997 62.2958 15.874 62.5843 15.2285C62.6962 14.9782 62.8354 14.7444 63.002 14.527C63.4387 13.9614 64.0093 13.523 64.7138 13.2119C65.4323 12.9008 66.2284 12.7452 67.1019 12.7452C68.1022 12.7452 68.9687 12.9149 69.7013 13.2543C70.4339 13.5937 70.9975 14.0816 71.392 14.7179C71.7865 15.3543 71.9837 16.1391 71.9837 17.0724V22.4892C71.9837 23.1526 71.4459 23.6905 70.7824 23.6905H70.5651C69.9899 23.6905 69.4954 23.2827 69.3858 22.7181L69.2575 22.0572C69.1025 22.34 68.9194 22.5946 68.708 22.8208C68.4967 23.0471 68.2501 23.2451 67.9684 23.4147C67.6866 23.5844 67.3696 23.7117 67.0174 23.7966C66.6651 23.8955 66.2777 23.945 65.855 23.945ZM66.5313 21.739C66.8976 21.739 67.2216 21.6754 67.5034 21.5481C67.7993 21.4067 68.0529 21.2229 68.2642 20.9966C68.4756 20.7562 68.6376 20.4875 68.7503 20.1906C68.8771 19.8795 68.9616 19.5471 69.0039 19.1936V19.1936C69.0039 19.1819 68.9944 19.1724 68.9827 19.1724H66.8271C66.3904 19.1724 66.0311 19.229 65.7493 19.3421C65.4816 19.4411 65.2844 19.5896 65.1576 19.7875C65.0308 19.9855 64.9674 20.2118 64.9674 20.4663C64.9674 20.7491 65.0308 20.9825 65.1576 21.1663C65.2844 21.3501 65.4676 21.4915 65.7071 21.5905C65.9466 21.6895 66.2213 21.739 66.5313 21.739Z" fill="#102a56" style="fill: rgb(16, 42, 86) !important;"/><path d="M78.5761 23.945C77.6039 23.945 76.7586 23.7895 76.04 23.4784C75.3215 23.1673 74.7579 22.736 74.3494 22.1845C74.2045 21.9889 74.0818 21.7845 73.9812 21.5712C73.6818 20.9364 74.2531 20.3178 74.955 20.3178H75.6539C76.1429 20.3178 76.5504 20.6685 76.8431 21.0602V21.0602C77.0122 21.2724 77.2376 21.4421 77.5194 21.5693C77.8012 21.6966 78.1393 21.7602 78.5338 21.7602C78.9142 21.7602 79.2242 21.7107 79.4637 21.6117C79.7032 21.4986 79.8793 21.3501 79.992 21.1663C80.1188 20.9825 80.1822 20.7916 80.1822 20.5936C80.1822 20.2966 80.0977 20.0704 79.9286 19.9148C79.7595 19.7451 79.513 19.6108 79.1889 19.5118C78.8649 19.4128 78.4704 19.3138 78.0055 19.2148C77.4983 19.1158 76.9981 18.9956 76.505 18.8542C76.026 18.6987 75.5962 18.5078 75.2158 18.2815C74.8354 18.0552 74.5325 17.7653 74.3071 17.4118C74.0817 17.0583 73.969 16.6199 73.969 16.0967C73.969 15.4603 74.138 14.8947 74.4762 14.3997C74.8143 13.8907 75.3074 13.4876 75.9555 13.1907C76.6036 12.8937 77.3855 12.7452 78.3013 12.7452C79.5834 12.7452 80.5978 13.0351 81.3445 13.6149C81.7345 13.9177 82.0418 14.2802 82.2665 14.7024C82.609 15.3459 82.0259 16.0118 81.2969 16.0118H80.921C80.3739 16.0118 79.9179 15.5782 79.4627 15.2748C79.4491 15.2658 79.4354 15.2569 79.4214 15.2482C79.1396 15.0502 78.7592 14.9513 78.2802 14.9513C77.773 14.9513 77.3855 15.0432 77.1178 15.227C76.8502 15.4108 76.7163 15.6512 76.7163 15.9482C76.7163 16.1462 76.8008 16.3229 76.9699 16.4785C77.1531 16.6341 77.4067 16.7684 77.7307 16.8815C78.0548 16.9805 78.4493 17.0795 78.9142 17.1785C79.7314 17.3482 80.4499 17.5462 81.0698 17.7724C81.6897 17.9845 82.1758 18.2956 82.528 18.7057C82.8803 19.1017 83.0564 19.6815 83.0564 20.4451C83.0564 21.1239 82.8732 21.7319 82.5069 22.2693C82.1406 22.7925 81.6193 23.2026 80.943 23.4996C80.2808 23.7966 79.4918 23.945 78.5761 23.945Z" fill="#102a56" style="fill: rgb(16, 42, 86) !important;"/><path d="M86.249 23.6905C85.5855 23.6905 85.0477 23.1526 85.0477 22.4892V9.61936C85.0477 8.95588 85.5855 8.41803 86.249 8.41803H86.6994C87.3629 8.41803 87.9007 8.95588 87.9007 9.61936V14.5907C88.2529 14.025 88.7179 13.5796 89.2955 13.2543C89.8873 12.9149 90.5706 12.7452 91.3455 12.7452C92.2331 12.7452 92.9798 12.9361 93.5856 13.3179C94.1915 13.6856 94.6494 14.223 94.9593 14.93C95.2693 15.6371 95.4242 16.5139 95.4242 17.5603V22.4892C95.4242 23.1526 94.8864 23.6905 94.2229 23.6905H93.7937C93.1302 23.6905 92.5924 23.1526 92.5924 22.4892V17.8148C92.5924 16.9664 92.4162 16.3159 92.064 15.8634C91.7118 15.3967 91.1553 15.1634 90.3945 15.1634C89.9295 15.1634 89.5069 15.2765 89.1265 15.5028C88.7461 15.729 88.4431 16.0613 88.2177 16.4997C88.0064 16.9239 87.9007 17.433 87.9007 18.027V22.4892C87.9007 23.1526 87.3629 23.6905 86.6994 23.6905H86.249Z" fill="#102a56" style="fill: rgb(16, 42, 86) !important;"/><path d="M102.803 23.945C101.733 23.945 100.782 23.7188 99.9503 23.2663C99.1331 22.7996 98.4921 22.1562 98.0271 21.336C97.5763 20.5017 97.3509 19.5401 97.3509 18.4512C97.3509 17.334 97.5763 16.3512 98.0271 15.5028C98.4921 14.6401 99.1331 13.9684 99.9503 13.4876C100.767 12.9927 101.718 12.7452 102.803 12.7452C103.86 12.7452 104.783 12.9786 105.572 13.4452C106.361 13.9119 106.974 14.5412 107.41 15.3331C107.847 16.125 108.066 17.0229 108.066 18.027C108.066 18.1684 108.066 18.331 108.066 18.5148V18.5148C108.066 18.8211 107.797 19.0451 107.491 19.0451H99.3797V17.3058H105.191C105.149 16.6128 104.903 16.0684 104.452 15.6725C104.015 15.2765 103.465 15.0785 102.803 15.0785C102.324 15.0785 101.88 15.1917 101.472 15.4179C101.063 15.63 100.739 15.9623 100.5 16.4149C100.274 16.8674 100.162 17.4401 100.162 18.133V18.7482C100.162 19.3279 100.267 19.837 100.479 20.2754C100.704 20.6996 101.014 21.032 101.408 21.2724C101.803 21.4986 102.261 21.6117 102.782 21.6117C103.303 21.6117 103.733 21.4986 104.071 21.2724C104.195 21.1928 104.308 21.1054 104.409 21.0102C104.746 20.6931 105.148 20.4027 105.61 20.4027H106.16C106.963 20.4027 107.533 21.1886 107.064 21.8411C106.975 21.9657 106.879 22.0872 106.776 22.2057C106.311 22.743 105.741 23.1673 105.065 23.4784C104.388 23.7895 103.635 23.945 102.803 23.945Z" fill="#102a56" style="fill: rgb(16, 42, 86) !important;"/><path d="M111.181 23.6905C110.517 23.6905 109.979 23.1526 109.979 22.4892V14.2011C109.979 13.5376 110.517 12.9998 111.181 12.9998H111.47C112.069 12.9998 112.577 13.4417 112.66 14.0354L112.79 14.9725C113.044 14.5058 113.361 14.1099 113.741 13.7846C114.136 13.4594 114.58 13.2048 115.073 13.021C115.227 12.9649 115.387 12.9173 115.551 12.8783C116.196 12.7249 116.742 13.2831 116.742 13.9466V14.8064C116.742 15.3433 116.307 15.7785 115.77 15.7785V15.7785C115.347 15.7785 114.953 15.828 114.587 15.927C114.234 16.026 113.924 16.1886 113.657 16.4149C113.389 16.627 113.185 16.9239 113.044 17.3058C112.903 17.6876 112.832 18.1684 112.832 18.7482V22.4892C112.832 23.1526 112.295 23.6905 111.631 23.6905H111.181Z" fill="#102a56" style="fill: rgb(16, 42, 86) !important;"/></svg>